{"accessors" : [{"bufferView" : 0, "byteOffset" : 0, "componentType" : 5123, "count" : 1674, "type" : "SCALAR", "max" : [1407], "min" : [0]}, {"bufferView" : 1, "byteOffset" : 0, "componentType" : 5126, "count" : 1408, "type" : "VEC3", "max" : [110.25289154052734, 191.67764282226562, 71.37193298339844], "min" : [-158.10308837890625, -7.999999979801942E-06, -58.97228240966797], "name" : "POSITION"}, {"bufferView" : 1, "byteOffset" : 12, "componentType" : 5126, "count" : 1408, "type" : "VEC2", "max" : [1, -0], "min" : [0, -1], "name" : "TEXCOORD_0"}, {"bufferView" : 1, "byteOffset" : 20, "componentType" : 5126, "count" : 1408, "type" : "VEC3", "max" : [0.9999145865440369, 0.9779227375984192, 0.9999531507492065], "min" : [-1.0000042915344238, -1.0000044107437134, -0.999972403049469], "name" : "NORMAL"}], "asset" : {"generator" : "Aspose.3D 22.1", "version" : "2.0"}, "buffers" : [{"uri" : "data:application/octet-stream;base64,", "byteLength" : 56924}], "bufferViews" : [{"buffer" : 0, "byteOffset" : 0, "byteLength" : 3348, "target" : 34963}, {"buffer" : 0, "byteOffset" : 3352, "byteLength" : 53568, "byteStride" : 32, "target" : 34962}], "meshes" : [{"primitives" : [{"attributes" : {"POSITION" : 1, "TEXCOORD_0" : 2, "NORMAL" : 3}, "indices" : 0, "mode" : 4}], "name" : ""}], "nodes" : [{"mesh" : 0, "name" : "Cube.025"}], "scene" : 0, "scenes" : [{"nodes" : [0]}]}