{"accessors" : [{"bufferView" : 0, "byteOffset" : 0, "componentType" : 5123, "count" : 33510, "type" : "SCALAR", "max" : [33158], "min" : [0]}, {"bufferView" : 1, "byteOffset" : 0, "componentType" : 5126, "count" : 33159, "type" : "VEC3", "max" : [31, 44, 42.500999450683594], "min" : [-5.9679999351501465, 23.14299964904785, 0], "name" : "POSITION"}, {"bufferView" : 1, "byteOffset" : 12, "componentType" : 5126, "count" : 33159, "type" : "VEC3", "max" : [0.9974101185798645, 0.999660849571228, 0.9999764561653137], "min" : [-0.998636782169342, -0.9997305870056152, -0.9996116757392883], "name" : "NORMAL"}], "asset" : {"generator" : "Aspose.3D 22.1", "version" : "2.0"}, "buffers" : [{"uri" : "data:application/octet-stream;base64,", "byteLength" : 871268}], "bufferViews" : [{"buffer" : 0, "byteOffset" : 0, "byteLength" : 67020, "target" : 34963}, {"buffer" : 0, "byteOffset" : 67024, "byteLength" : 804240, "byteStride" : 24, "target" : 34962}], "meshes" : [{"primitives" : [{"attributes" : {"POSITION" : 1, "NORMAL" : 2}, "indices" : 0, "mode" : 4}], "name" : ""}], "nodes" : [{"mesh" : 0, "name" : ""}], "scene" : 0, "scenes" : [{"nodes" : [0]}]}